<svg xmlns="http://www.w3.org/2000/svg" viewBox="0 0 256 256">
  <defs>
    <linearGradient id="bg" x1="0%" y1="0%" x2="100%" y2="100%">
      <stop offset="0%" style="stop-color:#0D1421"/>
      <stop offset="100%" style="stop-color:#1a2744"/>
    </linearGradient>
    <linearGradient id="glow" x1="0%" y1="0%" x2="100%" y2="100%">
      <stop offset="0%" style="stop-color:#00d4ff"/>
      <stop offset="100%" style="stop-color:#0088ff"/>
    </linearGradient>
  </defs>
  <rect width="256" height="256" fill="url(#bg)"/>
  <path d="M128 40 L200 200 L180 200 L128 90 L76 200 L56 200 L128 40 Z" fill="url(#glow)" opacity="0.3" stroke="url(#glow)" stroke-width="2"/>
  <path d="M128 40 L200 200 L180 200 L128 90 L76 200 L56 200 L128 40 Z" fill="none" stroke="url(#glow)" stroke-width="3"/>
  <line x1="90" y1="150" x2="166" y2="150" stroke="url(#glow)" stroke-width="3"/>
  <circle cx="90" cy="150" r="4" fill="#00d4ff"/>
  <circle cx="166" cy="150" r="4" fill="#00d4ff"/>
  <line x1="70" y1="180" x2="50" y2="180" stroke="#00d4ff" stroke-width="2" opacity="0.6"/>
  <line x1="186" y1="180" x2="206" y2="180" stroke="#00d4ff" stroke-width="2" opacity="0.6"/>
  <circle cx="50" cy="180" r="3" fill="#00d4ff" opacity="0.8"/>
  <circle cx="206" cy="180" r="3" fill="#00d4ff" opacity="0.8"/>
  <line x1="128" y1="50" x2="128" y2="30" stroke="#00d4ff" stroke-width="2" opacity="0.6"/>
  <circle cx="128" cy="30" r="3" fill="#00d4ff" opacity="0.8"/>
</svg>